<mxfile host="app.diagrams.net" modified="2022-04-27T18:45:14.654Z" agent="5.0 (Windows NT 10.0; Win64; x64) AppleWebKit/537.36 (KHTML, like Gecko) Chrome/99.0.4844.84 Safari/537.36 OPR/85.0.4341.72" etag="zQTnl027nS24W_TXBgO8" version="17.2.4" type="github">
  <diagram id="SUyKAxPfqfIiFWZCQHqF" name="Page-1">
    <mxGraphModel dx="1059" dy="746" grid="1" gridSize="10" guides="1" tooltips="1" connect="1" arrows="1" fold="1" page="1" pageScale="1" pageWidth="827" pageHeight="1169" math="0" shadow="0">
      <root>
        <mxCell id="0" />
        <mxCell id="1" parent="0" />
        <mxCell id="zc-72Hwy1zZC2l9dPH2s-3" style="edgeStyle=orthogonalEdgeStyle;rounded=0;orthogonalLoop=1;jettySize=auto;html=1;exitX=0;exitY=0.5;exitDx=0;exitDy=0;" edge="1" parent="1" source="zc-72Hwy1zZC2l9dPH2s-2">
          <mxGeometry relative="1" as="geometry">
            <mxPoint x="140" y="510" as="targetPoint" />
          </mxGeometry>
        </mxCell>
        <mxCell id="zc-72Hwy1zZC2l9dPH2s-8" style="edgeStyle=orthogonalEdgeStyle;rounded=0;orthogonalLoop=1;jettySize=auto;html=1;exitX=1;exitY=0.5;exitDx=0;exitDy=0;" edge="1" parent="1" source="zc-72Hwy1zZC2l9dPH2s-2">
          <mxGeometry relative="1" as="geometry">
            <mxPoint x="530" y="510" as="targetPoint" />
          </mxGeometry>
        </mxCell>
        <UserObject label="Loja" treeRoot="1" id="zc-72Hwy1zZC2l9dPH2s-2">
          <mxCell style="whiteSpace=wrap;html=1;align=center;treeFolding=1;treeMoving=1;newEdgeStyle={&quot;edgeStyle&quot;:&quot;elbowEdgeStyle&quot;,&quot;startArrow&quot;:&quot;none&quot;,&quot;endArrow&quot;:&quot;none&quot;};" vertex="1" parent="1">
            <mxGeometry x="280" y="480" width="120" height="60" as="geometry" />
          </mxCell>
        </UserObject>
        <UserObject label="Funcionarios" treeRoot="1" id="zc-72Hwy1zZC2l9dPH2s-4">
          <mxCell style="whiteSpace=wrap;html=1;align=center;treeFolding=1;treeMoving=1;newEdgeStyle={&quot;edgeStyle&quot;:&quot;elbowEdgeStyle&quot;,&quot;startArrow&quot;:&quot;none&quot;,&quot;endArrow&quot;:&quot;none&quot;};" vertex="1" parent="1">
            <mxGeometry x="10" y="480" width="120" height="60" as="geometry" />
          </mxCell>
        </UserObject>
        <mxCell id="zc-72Hwy1zZC2l9dPH2s-7" style="edgeStyle=orthogonalEdgeStyle;rounded=0;orthogonalLoop=1;jettySize=auto;html=1;exitX=0.5;exitY=1;exitDx=0;exitDy=0;" edge="1" parent="1" source="zc-72Hwy1zZC2l9dPH2s-6">
          <mxGeometry relative="1" as="geometry">
            <mxPoint x="340" y="470" as="targetPoint" />
          </mxGeometry>
        </mxCell>
        <UserObject label="Proprietario" treeRoot="1" id="zc-72Hwy1zZC2l9dPH2s-6">
          <mxCell style="whiteSpace=wrap;html=1;align=center;treeFolding=1;treeMoving=1;newEdgeStyle={&quot;edgeStyle&quot;:&quot;elbowEdgeStyle&quot;,&quot;startArrow&quot;:&quot;none&quot;,&quot;endArrow&quot;:&quot;none&quot;};" vertex="1" parent="1">
            <mxGeometry x="280" y="330" width="120" height="60" as="geometry" />
          </mxCell>
        </UserObject>
        <mxCell id="zc-72Hwy1zZC2l9dPH2s-10" style="edgeStyle=orthogonalEdgeStyle;rounded=0;orthogonalLoop=1;jettySize=auto;html=1;exitX=0.5;exitY=1;exitDx=0;exitDy=0;" edge="1" parent="1" source="zc-72Hwy1zZC2l9dPH2s-9">
          <mxGeometry relative="1" as="geometry">
            <mxPoint x="610" y="590" as="targetPoint" />
          </mxGeometry>
        </mxCell>
        <UserObject label="Cardapio" treeRoot="1" id="zc-72Hwy1zZC2l9dPH2s-9">
          <mxCell style="whiteSpace=wrap;html=1;align=center;treeFolding=1;treeMoving=1;newEdgeStyle={&quot;edgeStyle&quot;:&quot;elbowEdgeStyle&quot;,&quot;startArrow&quot;:&quot;none&quot;,&quot;endArrow&quot;:&quot;none&quot;};" vertex="1" parent="1">
            <mxGeometry x="550" y="480" width="120" height="60" as="geometry" />
          </mxCell>
        </UserObject>
        <mxCell id="zc-72Hwy1zZC2l9dPH2s-13" style="edgeStyle=orthogonalEdgeStyle;rounded=0;orthogonalLoop=1;jettySize=auto;html=1;exitX=0.5;exitY=1;exitDx=0;exitDy=0;" edge="1" parent="1" source="zc-72Hwy1zZC2l9dPH2s-11" target="zc-72Hwy1zZC2l9dPH2s-12">
          <mxGeometry relative="1" as="geometry" />
        </mxCell>
        <UserObject label="Categorias" treeRoot="1" id="zc-72Hwy1zZC2l9dPH2s-11">
          <mxCell style="whiteSpace=wrap;html=1;align=center;treeFolding=1;treeMoving=1;newEdgeStyle={&quot;edgeStyle&quot;:&quot;elbowEdgeStyle&quot;,&quot;startArrow&quot;:&quot;none&quot;,&quot;endArrow&quot;:&quot;none&quot;};" vertex="1" parent="1">
            <mxGeometry x="550" y="590" width="120" height="60" as="geometry" />
          </mxCell>
        </UserObject>
        <mxCell id="zc-72Hwy1zZC2l9dPH2s-15" style="edgeStyle=orthogonalEdgeStyle;rounded=0;orthogonalLoop=1;jettySize=auto;html=1;exitX=0.5;exitY=1;exitDx=0;exitDy=0;entryX=0.5;entryY=0;entryDx=0;entryDy=0;" edge="1" parent="1" source="zc-72Hwy1zZC2l9dPH2s-12" target="zc-72Hwy1zZC2l9dPH2s-14">
          <mxGeometry relative="1" as="geometry" />
        </mxCell>
        <UserObject label="Produtos" treeRoot="1" id="zc-72Hwy1zZC2l9dPH2s-12">
          <mxCell style="whiteSpace=wrap;html=1;align=center;treeFolding=1;treeMoving=1;newEdgeStyle={&quot;edgeStyle&quot;:&quot;elbowEdgeStyle&quot;,&quot;startArrow&quot;:&quot;none&quot;,&quot;endArrow&quot;:&quot;none&quot;};" vertex="1" parent="1">
            <mxGeometry x="550" y="690" width="120" height="60" as="geometry" />
          </mxCell>
        </UserObject>
        <UserObject label="PedidosItens" treeRoot="1" id="zc-72Hwy1zZC2l9dPH2s-14">
          <mxCell style="whiteSpace=wrap;html=1;align=center;treeFolding=1;treeMoving=1;newEdgeStyle={&quot;edgeStyle&quot;:&quot;elbowEdgeStyle&quot;,&quot;startArrow&quot;:&quot;none&quot;,&quot;endArrow&quot;:&quot;none&quot;};" vertex="1" parent="1">
            <mxGeometry x="550" y="780" width="120" height="60" as="geometry" />
          </mxCell>
        </UserObject>
        <mxCell id="zc-72Hwy1zZC2l9dPH2s-18" style="edgeStyle=orthogonalEdgeStyle;rounded=0;orthogonalLoop=1;jettySize=auto;html=1;exitX=0;exitY=0.5;exitDx=0;exitDy=0;entryX=1;entryY=0.5;entryDx=0;entryDy=0;" edge="1" parent="1" source="zc-72Hwy1zZC2l9dPH2s-16" target="zc-72Hwy1zZC2l9dPH2s-14">
          <mxGeometry relative="1" as="geometry" />
        </mxCell>
        <mxCell id="zc-72Hwy1zZC2l9dPH2s-19" style="edgeStyle=orthogonalEdgeStyle;rounded=0;orthogonalLoop=1;jettySize=auto;html=1;exitX=0.5;exitY=0;exitDx=0;exitDy=0;" edge="1" parent="1" source="zc-72Hwy1zZC2l9dPH2s-16">
          <mxGeometry relative="1" as="geometry">
            <mxPoint x="809.5714285714287" y="750.0000000000002" as="targetPoint" />
          </mxGeometry>
        </mxCell>
        <UserObject label="Pedidos" treeRoot="1" id="zc-72Hwy1zZC2l9dPH2s-16">
          <mxCell style="whiteSpace=wrap;html=1;align=center;treeFolding=1;treeMoving=1;newEdgeStyle={&quot;edgeStyle&quot;:&quot;elbowEdgeStyle&quot;,&quot;startArrow&quot;:&quot;none&quot;,&quot;endArrow&quot;:&quot;none&quot;};" vertex="1" parent="1">
            <mxGeometry x="750" y="780" width="120" height="60" as="geometry" />
          </mxCell>
        </UserObject>
        <UserObject label="Clientes" treeRoot="1" id="zc-72Hwy1zZC2l9dPH2s-17">
          <mxCell style="whiteSpace=wrap;html=1;align=center;treeFolding=1;treeMoving=1;newEdgeStyle={&quot;edgeStyle&quot;:&quot;elbowEdgeStyle&quot;,&quot;startArrow&quot;:&quot;none&quot;,&quot;endArrow&quot;:&quot;none&quot;};" vertex="1" parent="1">
            <mxGeometry x="750" y="690" width="120" height="60" as="geometry" />
          </mxCell>
        </UserObject>
        <mxCell id="zc-72Hwy1zZC2l9dPH2s-22" style="edgeStyle=orthogonalEdgeStyle;rounded=0;orthogonalLoop=1;jettySize=auto;html=1;exitX=0.5;exitY=1;exitDx=0;exitDy=0;entryX=0.5;entryY=1;entryDx=0;entryDy=0;" edge="1" parent="1" source="zc-72Hwy1zZC2l9dPH2s-20" target="zc-72Hwy1zZC2l9dPH2s-4">
          <mxGeometry relative="1" as="geometry" />
        </mxCell>
        <UserObject label="Usuarios" treeRoot="1" id="zc-72Hwy1zZC2l9dPH2s-20">
          <mxCell style="whiteSpace=wrap;html=1;align=center;treeFolding=1;treeMoving=1;newEdgeStyle={&quot;edgeStyle&quot;:&quot;elbowEdgeStyle&quot;,&quot;startArrow&quot;:&quot;none&quot;,&quot;endArrow&quot;:&quot;none&quot;};" vertex="1" parent="1">
            <mxGeometry x="750" y="920" width="120" height="60" as="geometry" />
          </mxCell>
        </UserObject>
        <mxCell id="zc-72Hwy1zZC2l9dPH2s-23" style="edgeStyle=orthogonalEdgeStyle;rounded=0;orthogonalLoop=1;jettySize=auto;html=1;exitX=0;exitY=0.5;exitDx=0;exitDy=0;" edge="1" parent="1" source="zc-72Hwy1zZC2l9dPH2s-21" target="zc-72Hwy1zZC2l9dPH2s-14">
          <mxGeometry relative="1" as="geometry" />
        </mxCell>
        <UserObject label="Carinho" treeRoot="1" id="zc-72Hwy1zZC2l9dPH2s-21">
          <mxCell style="whiteSpace=wrap;html=1;align=center;treeFolding=1;treeMoving=1;newEdgeStyle={&quot;edgeStyle&quot;:&quot;elbowEdgeStyle&quot;,&quot;startArrow&quot;:&quot;none&quot;,&quot;endArrow&quot;:&quot;none&quot;};" vertex="1" parent="1">
            <mxGeometry x="550" y="920" width="120" height="60" as="geometry" />
          </mxCell>
        </UserObject>
      </root>
    </mxGraphModel>
  </diagram>
</mxfile>
